<svg width="42.000000" height="42.000000" viewBox="0 0 42 42" fill="none" xmlns="http://www.w3.org/2000/svg" xmlns:xlink="http://www.w3.org/1999/xlink">
	<desc>
			Created with Pixso.
	</desc>
	<defs>
		<clipPath id="clip1_126">
			<rect id="settings" rx="-0.500000" width="41.000000" height="41.000000" transform="translate(0.500000 0.500000)" fill="white" fill-opacity="0"/>
		</clipPath>
	</defs>
	<rect id="settings" rx="-0.500000" width="41.000000" height="41.000000" transform="translate(0.500000 0.500000)" fill="#FFFFFF" fill-opacity="0"/>
	<g clip-path="url(#clip1_126)">
		<path id="Vector" d="M21 26.25C18.1 26.25 15.75 23.89 15.75 21C15.75 18.1 18.1 15.75 21 15.75C23.89 15.75 26.25 18.1 26.25 21C26.25 23.89 23.89 26.25 21 26.25Z" stroke="#FFFFFF" stroke-opacity="1.000000" stroke-width="3.000000" stroke-linejoin="round"/>
		<path id="Vector" d="M33.75 27.93C33.85 28.49 34.12 29.02 34.52 29.43L34.63 29.54C34.95 29.86 35.21 30.25 35.39 30.67C35.56 31.1 35.65 31.55 35.65 32.01C35.65 32.47 35.56 32.93 35.39 33.35C35.21 33.78 34.95 34.16 34.63 34.49C34.3 34.81 33.92 35.07 33.49 35.25C33.07 35.42 32.61 35.51 32.15 35.51C31.69 35.51 31.24 35.42 30.81 35.25C30.39 35.07 30 34.81 29.68 34.49L29.57 34.38C29.16 33.98 28.63 33.71 28.07 33.61C27.5 33.5 26.91 33.57 26.39 33.81C25.87 34.03 25.43 34.4 25.12 34.86C24.8 35.33 24.64 35.88 24.64 36.45L24.64 36.75C24.64 37.67 24.27 38.56 23.61 39.22C22.95 39.88 22.06 40.25 21.14 40.25C20.21 40.25 19.32 39.88 18.66 39.22C18 38.56 17.64 37.67 17.64 36.75L17.64 36.59C17.62 36.01 17.43 35.45 17.1 34.98C16.76 34.5 16.29 34.15 15.75 33.95C15.22 33.71 14.63 33.64 14.06 33.75C13.5 33.85 12.97 34.12 12.56 34.52L12.46 34.63C12.13 34.95 11.74 35.21 11.32 35.39C10.89 35.56 10.44 35.65 9.98 35.65C9.52 35.65 9.06 35.56 8.64 35.39C8.21 35.21 7.83 34.95 7.5 34.63C7.18 34.3 6.92 33.92 6.74 33.49C6.57 33.07 6.48 32.61 6.48 32.15C6.48 31.69 6.57 31.24 6.74 30.81C6.92 30.39 7.18 30 7.5 29.68L7.61 29.57C8.01 29.16 8.28 28.63 8.38 28.07C8.49 27.5 8.42 26.91 8.18 26.39C7.96 25.87 7.59 25.43 7.13 25.12C6.66 24.8 6.11 24.64 5.54 24.64L5.25 24.64C4.32 24.64 3.43 24.27 2.77 23.61C2.11 22.95 1.75 22.06 1.75 21.14C1.75 20.21 2.11 19.32 2.77 18.66C3.43 18 4.32 17.64 5.25 17.64L5.4 17.64C5.98 17.62 6.54 17.43 7.01 17.1C7.49 16.76 7.84 16.29 8.05 15.75C8.28 15.22 8.35 14.63 8.24 14.06C8.14 13.5 7.87 12.97 7.47 12.56L7.36 12.46C7.04 12.13 6.78 11.74 6.6 11.32C6.43 10.89 6.34 10.44 6.34 9.98C6.34 9.52 6.43 9.06 6.6 8.64C6.78 8.21 7.04 7.83 7.36 7.5C7.69 7.18 8.07 6.92 8.5 6.74C8.92 6.57 9.38 6.48 9.84 6.48C10.3 6.48 10.75 6.57 11.18 6.74C11.6 6.92 11.99 7.18 12.31 7.5L12.42 7.61C12.83 8.01 13.36 8.28 13.92 8.38C14.49 8.49 15.08 8.42 15.61 8.18L15.75 8.18C16.26 7.96 16.7 7.59 17.02 7.13C17.33 6.66 17.49 6.11 17.5 5.54L17.5 5.25C17.5 4.32 17.86 3.43 18.52 2.77C19.18 2.11 20.07 1.75 21 1.75C21.92 1.75 22.81 2.11 23.47 2.77C24.13 3.43 24.5 4.32 24.5 5.25L24.5 5.4C24.5 5.97 24.66 6.52 24.98 6.99C25.29 7.45 25.73 7.82 26.25 8.05C26.77 8.28 27.36 8.35 27.93 8.24C28.49 8.14 29.02 7.87 29.43 7.47L29.54 7.36C29.86 7.04 30.25 6.78 30.67 6.6C31.1 6.43 31.55 6.34 32.01 6.34C32.47 6.34 32.93 6.43 33.35 6.6C33.78 6.78 34.16 7.04 34.49 7.36C34.81 7.69 35.07 8.07 35.25 8.5C35.42 8.92 35.51 9.38 35.51 9.84C35.51 10.3 35.42 10.75 35.25 11.18C35.07 11.6 34.81 11.99 34.49 12.31L34.38 12.42C33.98 12.83 33.71 13.36 33.61 13.92C33.5 14.49 33.57 15.08 33.81 15.61L33.81 15.75C34.03 16.26 34.4 16.7 34.86 17.02C35.33 17.33 35.88 17.49 36.45 17.5L36.75 17.5C37.67 17.5 38.56 17.86 39.22 18.52C39.88 19.18 40.25 20.07 40.25 21C40.25 21.92 39.88 22.81 39.22 23.47C38.56 24.13 37.67 24.5 36.75 24.5L36.59 24.5C36.02 24.5 35.47 24.66 35 24.98C34.54 25.29 34.17 25.73 33.95 26.25C33.71 26.77 33.64 27.36 33.75 27.93Z" stroke="#FFFFFF" stroke-opacity="1.000000" stroke-width="3.000000" stroke-linejoin="round"/>
	</g>
</svg>
