<svg width="24.000000" height="24.000000" viewBox="0 0 24 24" fill="none" xmlns="http://www.w3.org/2000/svg" xmlns:xlink="http://www.w3.org/1999/xlink">
	<desc>
			Created with Pixso.
	</desc>
	<defs>
		<clipPath id="clip1_572">
			<rect id="linkedin" rx="-0.500000" width="23.000000" height="23.000000" transform="translate(0.500000 0.500000)" fill="white" fill-opacity="0"/>
		</clipPath>
	</defs>
	<rect id="linkedin" rx="-0.500000" width="23.000000" height="23.000000" transform="translate(0.500000 0.500000)" fill="#FFFFFF" fill-opacity="0"/>
	<g clip-path="url(#clip1_572)">
		<path id="Vector" d="M20.24 9.75C21.36 10.88 22 12.4 22 14L22 21L18 21L18 14C18 13.46 17.78 12.96 17.41 12.58C17.03 12.21 16.53 12 16 12C15.46 12 14.96 12.21 14.58 12.58C14.21 12.96 14 13.46 14 14L14 21L10 21L10 14C10 12.4 10.63 10.88 11.75 9.75C12.88 8.63 14.4 8 16 8C17.59 8 19.11 8.63 20.24 9.75Z" stroke="#383638" stroke-opacity="1.000000" stroke-width="2.000000" stroke-linejoin="round"/>
		<path id="Vector" d="M6 9L6 21L2 21L2 9L6 9Z" stroke="#383638" stroke-opacity="1.000000" stroke-width="2.000000" stroke-linejoin="round"/>
		<path id="Vector" d="M4 6C2.89 6 2 5.1 2 4C2 2.89 2.89 2 4 2C5.1 2 6 2.89 6 4C6 5.1 5.1 6 4 6Z" stroke="#383638" stroke-opacity="1.000000" stroke-width="2.000000" stroke-linejoin="round"/>
	</g>
</svg>
