<svg width="53.229248" height="49.885742" viewBox="0 0 53.2292 49.8857" fill="none" xmlns="http://www.w3.org/2000/svg" xmlns:xlink="http://www.w3.org/1999/xlink">
	<desc>
			Created with Pixso.
	</desc>
	<defs/>
	<path id="Vector" d="M33.26 1.86L45.53 23.07C46.2 24.23 46.2 25.65 45.53 26.81L33.26 48.01C32.59 49.17 31.36 49.88 30.02 49.88L37.21 49.88C38.55 49.88 39.78 49.17 40.45 48.01L52.72 26.81C53.39 25.65 53.39 24.23 52.72 23.07L40.45 1.86C39.78 0.71 38.55 0 37.21 0L30.02 0C31.36 0 32.59 0.71 33.26 1.86Z" fill="#39435A" fill-opacity="1.000000" fill-rule="nonzero"/>
	<path id="Vector" d="M33.26 1.86L33.81 2.81C34.74 2.82 35.7 2.9 36.69 3.04C38.65 3.33 40.46 3.86 42 4.54L40.45 1.86C39.78 0.71 38.55 0 37.21 0L30.02 0C31.36 0 32.59 0.71 33.26 1.86Z" fill="#2C374C" fill-opacity="1.000000" fill-rule="nonzero"/>
	<path id="Vector" d="M19.42 1.86L31.69 23.07C32.36 24.23 32.36 25.65 31.69 26.81L19.42 48.01C18.75 49.17 17.51 49.88 16.17 49.88L23.37 49.88C24.7 49.88 25.94 49.17 26.61 48.01L38.88 26.81C39.55 25.65 39.55 24.23 38.88 23.07L26.61 1.86C25.94 0.71 24.7 0 23.36 0L16.17 0C17.51 0 18.75 0.71 19.42 1.86Z" fill="#39435A" fill-opacity="1.000000" fill-rule="nonzero"/>
	<path id="Vector" d="M19.96 48.01L7.69 26.81C7.02 25.65 7.02 24.23 7.69 23.07L19.96 1.86C20.63 0.71 21.86 0 23.2 0L16.01 0C14.67 0 13.44 0.71 12.77 1.86L0.5 23.07C-0.17 24.23 -0.17 25.65 0.5 26.81L12.77 48.01C13.44 49.17 14.67 49.88 16.01 49.88L23.2 49.88C21.86 49.88 20.63 49.17 19.96 48.01Z" fill="#435F94" fill-opacity="1.000000" fill-rule="nonzero"/>
	<path id="Vector" d="M27.05 48.01L14.78 26.81C14.11 25.65 14.11 24.23 14.78 23.07L27.05 1.86C27.72 0.71 28.95 0 30.29 0L23.1 0C21.76 0 20.53 0.71 19.86 1.86L7.59 23.07C6.92 24.23 6.92 25.65 7.59 26.81L19.86 48.01C20.53 49.17 21.76 49.88 23.1 49.88L30.29 49.88C28.95 49.88 27.72 49.17 27.05 48.01Z" fill="#377DFF" fill-opacity="1.000000" fill-rule="nonzero"/>
	<path id="Vector" d="M34.27 48.01L22 26.81C21.33 25.65 21.33 24.23 22 23.07L34.27 1.86C34.94 0.71 36.18 0 37.52 0L30.33 0C28.99 0 27.75 0.71 27.08 1.86L14.81 23.07C14.14 24.23 14.14 25.65 14.81 26.81L27.08 48.01C27.75 49.17 28.99 49.88 30.33 49.88L37.52 49.88C36.18 49.88 34.94 49.17 34.27 48.01Z" fill="#37DBFF" fill-opacity="1.000000" fill-rule="nonzero"/>
</svg>
