<svg width="98.475098" height="70.925537" viewBox="0 0 98.4751 70.9255" fill="none" xmlns="http://www.w3.org/2000/svg" xmlns:xlink="http://www.w3.org/1999/xlink">
	<desc>
			Created with Pixso.
	</desc>
	<defs/>
	<ellipse id="Ellipse 58" cx="2.500000" cy="2.624756" rx="2.500000" ry="2.624691" fill="#377DFF" fill-opacity="1.000000"/>
	<ellipse id="Ellipse 70" cx="2.500000" cy="46.409180" rx="2.500000" ry="2.624691" fill="#377DFF" fill-opacity="1.000000"/>
	<ellipse id="Ellipse 60" cx="39.890137" cy="2.624756" rx="2.500000" ry="2.624691" fill="#377DFF" fill-opacity="1.000000"/>
	<ellipse id="Ellipse 71" cx="39.890137" cy="46.409180" rx="2.500000" ry="2.624691" fill="#377DFF" fill-opacity="1.000000"/>
	<ellipse id="Ellipse 62" cx="77.280029" cy="2.624756" rx="2.500000" ry="2.624691" fill="#377DFF" fill-opacity="1.000000"/>
	<ellipse id="Ellipse 72" cx="77.280029" cy="46.409180" rx="2.500000" ry="2.624691" fill="#377DFF" fill-opacity="1.000000"/>
	<ellipse id="Ellipse 64" cx="2.500000" cy="24.516846" rx="2.500000" ry="2.624691" fill="#377DFF" fill-opacity="1.000000"/>
	<ellipse id="Ellipse 73" cx="2.500000" cy="68.301025" rx="2.500000" ry="2.624691" fill="#377DFF" fill-opacity="1.000000"/>
	<ellipse id="Ellipse 66" cx="39.890137" cy="24.516846" rx="2.500000" ry="2.624691" fill="#377DFF" fill-opacity="1.000000"/>
	<ellipse id="Ellipse 74" cx="39.890137" cy="68.301025" rx="2.500000" ry="2.624691" fill="#377DFF" fill-opacity="1.000000"/>
	<ellipse id="Ellipse 68" cx="77.280029" cy="24.516846" rx="2.500000" ry="2.624691" fill="#377DFF" fill-opacity="1.000000"/>
	<ellipse id="Ellipse 75" cx="77.280029" cy="68.301025" rx="2.500000" ry="2.624691" fill="#377DFF" fill-opacity="1.000000"/>
	<ellipse id="Ellipse 59" cx="21.195068" cy="2.624756" rx="2.500000" ry="2.624691" fill="#377DFF" fill-opacity="1.000000"/>
	<ellipse id="Ellipse 76" cx="21.195068" cy="46.409180" rx="2.500000" ry="2.624691" fill="#377DFF" fill-opacity="1.000000"/>
	<ellipse id="Ellipse 61" cx="58.585205" cy="2.624756" rx="2.500000" ry="2.624691" fill="#377DFF" fill-opacity="1.000000"/>
	<ellipse id="Ellipse 77" cx="58.585205" cy="46.409180" rx="2.500000" ry="2.624691" fill="#377DFF" fill-opacity="1.000000"/>
	<ellipse id="Ellipse 63" cx="95.975098" cy="2.624756" rx="2.500000" ry="2.624691" fill="#377DFF" fill-opacity="1.000000"/>
	<ellipse id="Ellipse 78" cx="95.975098" cy="46.409180" rx="2.500000" ry="2.624691" fill="#377DFF" fill-opacity="1.000000"/>
	<ellipse id="Ellipse 65" cx="21.195068" cy="24.516846" rx="2.500000" ry="2.624691" fill="#377DFF" fill-opacity="1.000000"/>
	<ellipse id="Ellipse 79" cx="21.195068" cy="68.301025" rx="2.500000" ry="2.624691" fill="#377DFF" fill-opacity="1.000000"/>
	<ellipse id="Ellipse 67" cx="58.585205" cy="24.516846" rx="2.500000" ry="2.624691" fill="#377DFF" fill-opacity="1.000000"/>
	<ellipse id="Ellipse 80" cx="58.585205" cy="68.301025" rx="2.500000" ry="2.624691" fill="#377DFF" fill-opacity="1.000000"/>
	<ellipse id="Ellipse 69" cx="95.975098" cy="24.516846" rx="2.500000" ry="2.624691" fill="#377DFF" fill-opacity="1.000000"/>
	<ellipse id="Ellipse 81" cx="95.975098" cy="68.301025" rx="2.500000" ry="2.624691" fill="#377DFF" fill-opacity="1.000000"/>
</svg>
