<svg width="98.934204" height="70.676392" viewBox="0 0 98.9342 70.6764" fill="none" xmlns="http://www.w3.org/2000/svg" xmlns:xlink="http://www.w3.org/1999/xlink">
	<desc>
			Created with Pixso.
	</desc>
	<defs/>
	<ellipse id="Ellipse 58" cx="2.398071" cy="2.500000" rx="2.398119" ry="2.500000" fill="#FF5C00" fill-opacity="1.000000"/>
	<ellipse id="Ellipse 70" cx="2.398071" cy="46.284180" rx="2.398119" ry="2.500000" fill="#FF5C00" fill-opacity="1.000000"/>
	<ellipse id="Ellipse 60" cx="40.053223" cy="2.500000" rx="2.398119" ry="2.500000" fill="#FF5C00" fill-opacity="1.000000"/>
	<ellipse id="Ellipse 71" cx="40.053223" cy="46.284180" rx="2.398119" ry="2.500000" fill="#FF5C00" fill-opacity="1.000000"/>
	<ellipse id="Ellipse 62" cx="77.708374" cy="2.500000" rx="2.398119" ry="2.500000" fill="#FF5C00" fill-opacity="1.000000"/>
	<ellipse id="Ellipse 72" cx="77.708374" cy="46.284180" rx="2.398119" ry="2.500000" fill="#FF5C00" fill-opacity="1.000000"/>
	<ellipse id="Ellipse 64" cx="2.398071" cy="24.392090" rx="2.398119" ry="2.500000" fill="#FF5C00" fill-opacity="1.000000"/>
	<ellipse id="Ellipse 73" cx="2.398071" cy="68.176270" rx="2.398119" ry="2.500000" fill="#FF5C00" fill-opacity="1.000000"/>
	<ellipse id="Ellipse 66" cx="40.053223" cy="24.392090" rx="2.398119" ry="2.500000" fill="#FF5C00" fill-opacity="1.000000"/>
	<ellipse id="Ellipse 74" cx="40.053223" cy="68.176270" rx="2.398119" ry="2.500000" fill="#FF5C00" fill-opacity="1.000000"/>
	<ellipse id="Ellipse 68" cx="77.708374" cy="24.392090" rx="2.398119" ry="2.500000" fill="#FF5C00" fill-opacity="1.000000"/>
	<ellipse id="Ellipse 75" cx="77.708374" cy="68.176270" rx="2.398119" ry="2.500000" fill="#FF5C00" fill-opacity="1.000000"/>
	<ellipse id="Ellipse 59" cx="21.225708" cy="2.500000" rx="2.398119" ry="2.500000" fill="#FF5C00" fill-opacity="1.000000"/>
	<ellipse id="Ellipse 76" cx="21.225708" cy="46.284180" rx="2.398119" ry="2.500000" fill="#FF5C00" fill-opacity="1.000000"/>
	<ellipse id="Ellipse 61" cx="58.880859" cy="2.500000" rx="2.398119" ry="2.500000" fill="#FF5C00" fill-opacity="1.000000"/>
	<ellipse id="Ellipse 77" cx="58.880859" cy="46.284180" rx="2.398119" ry="2.500000" fill="#FF5C00" fill-opacity="1.000000"/>
	<ellipse id="Ellipse 63" cx="96.536011" cy="2.500000" rx="2.398119" ry="2.500000" fill="#FF5C00" fill-opacity="1.000000"/>
	<ellipse id="Ellipse 78" cx="96.536011" cy="46.284180" rx="2.398119" ry="2.500000" fill="#FF5C00" fill-opacity="1.000000"/>
	<ellipse id="Ellipse 65" cx="21.225708" cy="24.392090" rx="2.398119" ry="2.500000" fill="#FF5C00" fill-opacity="1.000000"/>
	<ellipse id="Ellipse 79" cx="21.225708" cy="68.176270" rx="2.398119" ry="2.500000" fill="#FF5C00" fill-opacity="1.000000"/>
	<ellipse id="Ellipse 67" cx="58.880859" cy="24.392090" rx="2.398119" ry="2.500000" fill="#FF5C00" fill-opacity="1.000000"/>
	<ellipse id="Ellipse 80" cx="58.880859" cy="68.176270" rx="2.398119" ry="2.500000" fill="#FF5C00" fill-opacity="1.000000"/>
	<ellipse id="Ellipse 69" cx="96.536011" cy="24.392090" rx="2.398119" ry="2.500000" fill="#FF5C00" fill-opacity="1.000000"/>
	<ellipse id="Ellipse 81" cx="96.536011" cy="68.176270" rx="2.398119" ry="2.500000" fill="#FF5C00" fill-opacity="1.000000"/>
</svg>
