<svg width="99.388916" height="72.200195" viewBox="0 0 99.3889 72.2002" fill="none" xmlns="http://www.w3.org/2000/svg" xmlns:xlink="http://www.w3.org/1999/xlink">
	<desc>
			Created with Pixso.
	</desc>
	<defs/>
	<ellipse id="Ellipse 58" rx="2.500000" ry="2.624691" transform="matrix(0.999915 -0.013003 0.013003 0.999915 2.53394 3.87256)" fill="#EB00FF" fill-opacity="1.000000"/>
	<ellipse id="Ellipse 70" rx="2.500000" ry="2.624691" transform="matrix(0.999915 -0.013003 0.013003 0.999915 3.10327 47.6533)" fill="#EB00FF" fill-opacity="1.000000"/>
	<ellipse id="Ellipse 60" rx="2.500000" ry="2.624691" transform="matrix(0.999915 -0.013003 0.013003 0.999915 39.9207 3.38635)" fill="#EB00FF" fill-opacity="1.000000"/>
	<ellipse id="Ellipse 71" rx="2.500000" ry="2.624691" transform="matrix(0.999915 -0.013003 0.013003 0.999915 40.49 47.1671)" fill="#EB00FF" fill-opacity="1.000000"/>
	<ellipse id="Ellipse 62" rx="2.500000" ry="2.624691" transform="matrix(0.999915 -0.013003 0.013003 0.999915 77.3076 2.90015)" fill="#EB00FF" fill-opacity="1.000000"/>
	<ellipse id="Ellipse 72" rx="2.500000" ry="2.624691" transform="matrix(0.999915 -0.013003 0.013003 0.999915 77.877 46.6809)" fill="#EB00FF" fill-opacity="1.000000"/>
	<ellipse id="Ellipse 64" rx="2.500000" ry="2.624691" transform="matrix(0.999915 -0.013003 0.013003 0.999915 2.8186 25.7628)" fill="#EB00FF" fill-opacity="1.000000"/>
	<ellipse id="Ellipse 73" rx="2.500000" ry="2.624691" transform="matrix(0.999915 -0.013003 0.013003 0.999915 3.38794 69.5432)" fill="#EB00FF" fill-opacity="1.000000"/>
	<ellipse id="Ellipse 66" rx="2.500000" ry="2.624691" transform="matrix(0.999915 -0.013003 0.013003 0.999915 40.2053 25.2766)" fill="#EB00FF" fill-opacity="1.000000"/>
	<ellipse id="Ellipse 74" rx="2.500000" ry="2.624691" transform="matrix(0.999915 -0.013003 0.013003 0.999915 40.7747 69.0571)" fill="#EB00FF" fill-opacity="1.000000"/>
	<ellipse id="Ellipse 68" rx="2.500000" ry="2.624691" transform="matrix(0.999915 -0.013003 0.013003 0.999915 77.5923 24.7904)" fill="#EB00FF" fill-opacity="1.000000"/>
	<ellipse id="Ellipse 75" rx="2.500000" ry="2.624691" transform="matrix(0.999915 -0.013003 0.013003 0.999915 78.1616 68.5709)" fill="#EB00FF" fill-opacity="1.000000"/>
	<ellipse id="Ellipse 59" rx="2.500000" ry="2.624691" transform="matrix(0.999915 -0.013003 0.013003 0.999915 21.2273 3.62939)" fill="#EB00FF" fill-opacity="1.000000"/>
	<ellipse id="Ellipse 76" rx="2.500000" ry="2.624691" transform="matrix(0.999915 -0.013003 0.013003 0.999915 21.7966 47.4102)" fill="#EB00FF" fill-opacity="1.000000"/>
	<ellipse id="Ellipse 61" rx="2.500000" ry="2.624691" transform="matrix(0.999915 -0.013003 0.013003 0.999915 58.6143 3.14331)" fill="#EB00FF" fill-opacity="1.000000"/>
	<ellipse id="Ellipse 77" rx="2.500000" ry="2.624691" transform="matrix(0.999915 -0.013003 0.013003 0.999915 59.1836 46.9241)" fill="#EB00FF" fill-opacity="1.000000"/>
	<ellipse id="Ellipse 63" rx="2.500000" ry="2.624691" transform="matrix(0.999915 -0.013003 0.013003 0.999915 96.0012 2.6571)" fill="#EB00FF" fill-opacity="1.000000"/>
	<ellipse id="Ellipse 78" rx="2.500000" ry="2.624691" transform="matrix(0.999915 -0.013003 0.013003 0.999915 96.5706 46.4377)" fill="#EB00FF" fill-opacity="1.000000"/>
	<ellipse id="Ellipse 65" rx="2.500000" ry="2.624691" transform="matrix(0.999915 -0.013003 0.013003 0.999915 21.512 25.5198)" fill="#EB00FF" fill-opacity="1.000000"/>
	<ellipse id="Ellipse 79" rx="2.500000" ry="2.624691" transform="matrix(0.999915 -0.013003 0.013003 0.999915 22.0813 69.3002)" fill="#EB00FF" fill-opacity="1.000000"/>
	<ellipse id="Ellipse 67" rx="2.500000" ry="2.624691" transform="matrix(0.999915 -0.013003 0.013003 0.999915 58.8989 25.0334)" fill="#EB00FF" fill-opacity="1.000000"/>
	<ellipse id="Ellipse 80" rx="2.500000" ry="2.624691" transform="matrix(0.999915 -0.013003 0.013003 0.999915 59.4683 68.814)" fill="#EB00FF" fill-opacity="1.000000"/>
	<ellipse id="Ellipse 69" rx="2.500000" ry="2.624691" transform="matrix(0.999915 -0.013003 0.013003 0.999915 96.2859 24.5474)" fill="#EB00FF" fill-opacity="1.000000"/>
	<ellipse id="Ellipse 81" rx="2.500000" ry="2.624691" transform="matrix(0.999915 -0.013003 0.013003 0.999915 96.8552 68.3279)" fill="#EB00FF" fill-opacity="1.000000"/>
</svg>
