<svg width="103.730469" height="75.676392" viewBox="0 0 103.73 75.6764" fill="none" xmlns="http://www.w3.org/2000/svg" xmlns:xlink="http://www.w3.org/1999/xlink">
	<desc>
			Created with Pixso.
	</desc>
	<defs/>
	<ellipse id="Ellipse 58" cx="4.796143" cy="5.000000" rx="4.796238" ry="5.000000" fill="#377DFF" fill-opacity="1.000000"/>
	<ellipse id="Ellipse 70" cx="4.796143" cy="48.784180" rx="4.796238" ry="5.000000" fill="#377DFF" fill-opacity="1.000000"/>
	<ellipse id="Ellipse 60" cx="42.451416" cy="5.000000" rx="4.796238" ry="5.000000" fill="#377DFF" fill-opacity="1.000000"/>
	<ellipse id="Ellipse 71" cx="42.451416" cy="48.784180" rx="4.796238" ry="5.000000" fill="#377DFF" fill-opacity="1.000000"/>
	<ellipse id="Ellipse 62" cx="80.106445" cy="5.000000" rx="4.796238" ry="5.000000" fill="#377DFF" fill-opacity="1.000000"/>
	<ellipse id="Ellipse 72" cx="80.106445" cy="48.784180" rx="4.796238" ry="5.000000" fill="#377DFF" fill-opacity="1.000000"/>
	<ellipse id="Ellipse 64" cx="4.796143" cy="26.892090" rx="4.796238" ry="5.000000" fill="#377DFF" fill-opacity="1.000000"/>
	<ellipse id="Ellipse 73" cx="4.796143" cy="70.676270" rx="4.796238" ry="5.000000" fill="#377DFF" fill-opacity="1.000000"/>
	<ellipse id="Ellipse 66" cx="42.451416" cy="26.892090" rx="4.796238" ry="5.000000" fill="#377DFF" fill-opacity="1.000000"/>
	<ellipse id="Ellipse 74" cx="42.451416" cy="70.676270" rx="4.796238" ry="5.000000" fill="#377DFF" fill-opacity="1.000000"/>
	<ellipse id="Ellipse 68" cx="80.106445" cy="26.892090" rx="4.796238" ry="5.000000" fill="#377DFF" fill-opacity="1.000000"/>
	<ellipse id="Ellipse 75" cx="80.106445" cy="70.676270" rx="4.796238" ry="5.000000" fill="#377DFF" fill-opacity="1.000000"/>
	<ellipse id="Ellipse 59" cx="23.623779" cy="5.000000" rx="4.796238" ry="5.000000" fill="#377DFF" fill-opacity="1.000000"/>
	<ellipse id="Ellipse 76" cx="23.623779" cy="48.784180" rx="4.796238" ry="5.000000" fill="#377DFF" fill-opacity="1.000000"/>
	<ellipse id="Ellipse 61" cx="61.279053" cy="5.000000" rx="4.796238" ry="5.000000" fill="#377DFF" fill-opacity="1.000000"/>
	<ellipse id="Ellipse 77" cx="61.279053" cy="48.784180" rx="4.796238" ry="5.000000" fill="#377DFF" fill-opacity="1.000000"/>
	<ellipse id="Ellipse 63" cx="98.934082" cy="5.000000" rx="4.796238" ry="5.000000" fill="#377DFF" fill-opacity="1.000000"/>
	<ellipse id="Ellipse 78" cx="98.934082" cy="48.784180" rx="4.796238" ry="5.000000" fill="#377DFF" fill-opacity="1.000000"/>
	<ellipse id="Ellipse 65" cx="23.623779" cy="26.892090" rx="4.796238" ry="5.000000" fill="#377DFF" fill-opacity="1.000000"/>
	<ellipse id="Ellipse 79" cx="23.623779" cy="70.676270" rx="4.796238" ry="5.000000" fill="#377DFF" fill-opacity="1.000000"/>
	<ellipse id="Ellipse 67" cx="61.279053" cy="26.892090" rx="4.796238" ry="5.000000" fill="#377DFF" fill-opacity="1.000000"/>
	<ellipse id="Ellipse 80" cx="61.279053" cy="70.676270" rx="4.796238" ry="5.000000" fill="#377DFF" fill-opacity="1.000000"/>
	<ellipse id="Ellipse 69" cx="98.934082" cy="26.892090" rx="4.796238" ry="5.000000" fill="#377DFF" fill-opacity="1.000000"/>
	<ellipse id="Ellipse 81" cx="98.934082" cy="70.676270" rx="4.796238" ry="5.000000" fill="#377DFF" fill-opacity="1.000000"/>
</svg>
