<svg width="98.475098" height="70.925537" viewBox="0 0 98.4751 70.9255" fill="none" xmlns="http://www.w3.org/2000/svg" xmlns:xlink="http://www.w3.org/1999/xlink">
	<desc>
			Created with Pixso.
	</desc>
	<defs/>
	<ellipse id="Ellipse 58" rx="2.500000" ry="2.624691" transform="matrix(1 -5.55112e-17 5.55112e-17 1 2.5 2.62476)" fill="#F62424" fill-opacity="1.000000"/>
	<ellipse id="Ellipse 70" rx="2.500000" ry="2.624691" transform="matrix(1 -5.55112e-17 5.55112e-17 1 2.5 46.4092)" fill="#F62424" fill-opacity="1.000000"/>
	<ellipse id="Ellipse 60" rx="2.500000" ry="2.624691" transform="matrix(1 -5.55112e-17 5.55112e-17 1 39.8901 2.62476)" fill="#F62424" fill-opacity="1.000000"/>
	<ellipse id="Ellipse 71" rx="2.500000" ry="2.624691" transform="matrix(1 -5.55112e-17 5.55112e-17 1 39.8901 46.4092)" fill="#F62424" fill-opacity="1.000000"/>
	<ellipse id="Ellipse 62" rx="2.500000" ry="2.624691" transform="matrix(1 -5.55112e-17 5.55112e-17 1 77.2803 2.62476)" fill="#F62424" fill-opacity="1.000000"/>
	<ellipse id="Ellipse 72" rx="2.500000" ry="2.624691" transform="matrix(1 -5.55112e-17 5.55112e-17 1 77.2803 46.4092)" fill="#F62424" fill-opacity="1.000000"/>
	<ellipse id="Ellipse 64" rx="2.500000" ry="2.624691" transform="matrix(1 -5.55112e-17 5.55112e-17 1 2.5 24.5168)" fill="#F62424" fill-opacity="1.000000"/>
	<ellipse id="Ellipse 73" rx="2.500000" ry="2.624691" transform="matrix(1 -5.55112e-17 5.55112e-17 1 2.5 68.301)" fill="#F62424" fill-opacity="1.000000"/>
	<ellipse id="Ellipse 66" rx="2.500000" ry="2.624691" transform="matrix(1 -5.55112e-17 5.55112e-17 1 39.8901 24.5168)" fill="#F62424" fill-opacity="1.000000"/>
	<ellipse id="Ellipse 74" rx="2.500000" ry="2.624691" transform="matrix(1 -5.55112e-17 5.55112e-17 1 39.8901 68.301)" fill="#F62424" fill-opacity="1.000000"/>
	<ellipse id="Ellipse 68" rx="2.500000" ry="2.624691" transform="matrix(1 -5.55112e-17 5.55112e-17 1 77.2803 24.5168)" fill="#F62424" fill-opacity="1.000000"/>
	<ellipse id="Ellipse 75" rx="2.500000" ry="2.624691" transform="matrix(1 -5.55112e-17 5.55112e-17 1 77.2803 68.301)" fill="#F62424" fill-opacity="1.000000"/>
	<ellipse id="Ellipse 59" rx="2.500000" ry="2.624691" transform="matrix(1 -5.55112e-17 5.55112e-17 1 21.1953 2.62476)" fill="#F62424" fill-opacity="1.000000"/>
	<ellipse id="Ellipse 76" rx="2.500000" ry="2.624691" transform="matrix(1 -5.55112e-17 5.55112e-17 1 21.1953 46.4092)" fill="#F62424" fill-opacity="1.000000"/>
	<ellipse id="Ellipse 61" rx="2.500000" ry="2.624691" transform="matrix(1 -5.55112e-17 5.55112e-17 1 58.5852 2.62476)" fill="#F62424" fill-opacity="1.000000"/>
	<ellipse id="Ellipse 77" rx="2.500000" ry="2.624691" transform="matrix(1 -5.55112e-17 5.55112e-17 1 58.5852 46.4092)" fill="#F62424" fill-opacity="1.000000"/>
	<ellipse id="Ellipse 63" rx="2.500000" ry="2.624691" transform="matrix(1 -5.55112e-17 5.55112e-17 1 95.9751 2.62476)" fill="#F62424" fill-opacity="1.000000"/>
	<ellipse id="Ellipse 78" rx="2.500000" ry="2.624691" transform="matrix(1 -5.55112e-17 5.55112e-17 1 95.9751 46.4092)" fill="#F62424" fill-opacity="1.000000"/>
	<ellipse id="Ellipse 65" rx="2.500000" ry="2.624691" transform="matrix(1 -5.55112e-17 5.55112e-17 1 21.1953 24.5168)" fill="#F62424" fill-opacity="1.000000"/>
	<ellipse id="Ellipse 79" rx="2.500000" ry="2.624691" transform="matrix(1 -5.55112e-17 5.55112e-17 1 21.1953 68.301)" fill="#F62424" fill-opacity="1.000000"/>
	<ellipse id="Ellipse 67" rx="2.500000" ry="2.624691" transform="matrix(1 -5.55112e-17 5.55112e-17 1 58.5852 24.5168)" fill="#F62424" fill-opacity="1.000000"/>
	<ellipse id="Ellipse 80" rx="2.500000" ry="2.624691" transform="matrix(1 -5.55112e-17 5.55112e-17 1 58.5852 68.301)" fill="#F62424" fill-opacity="1.000000"/>
	<ellipse id="Ellipse 69" rx="2.500000" ry="2.624691" transform="matrix(1 -5.55112e-17 5.55112e-17 1 95.9751 24.5168)" fill="#F62424" fill-opacity="1.000000"/>
	<ellipse id="Ellipse 81" rx="2.500000" ry="2.624691" transform="matrix(1 -5.55112e-17 5.55112e-17 1 95.9751 68.301)" fill="#F62424" fill-opacity="1.000000"/>
</svg>
