<svg width="17.705078" height="16.934570" viewBox="0 0 17.7051 16.9346" fill="none" xmlns="http://www.w3.org/2000/svg" xmlns:xlink="http://www.w3.org/1999/xlink">
	<desc>
			Created with Pixso.
	</desc>
	<defs/>
	<path id="Vector" d="M9.74 0.55L11.71 4.52C11.85 4.82 12.13 5.02 12.46 5.07L16.84 5.71C17.66 5.83 17.99 6.84 17.4 7.42L14.22 10.51C13.99 10.74 13.88 11.07 13.94 11.39L14.68 15.76C14.83 16.58 13.97 17.2 13.23 16.81L9.31 14.75C9.02 14.6 8.67 14.6 8.38 14.75L4.46 16.81C3.73 17.2 2.87 16.58 3.01 15.76L3.76 11.39C3.81 11.07 3.71 10.74 3.47 10.51L0.3 7.42C-0.3 6.84 0.03 5.83 0.85 5.71L5.24 5.07C5.56 5.02 5.84 4.82 5.99 4.52L7.95 0.55C8.32 -0.19 9.38 -0.19 9.74 0.55Z" fill="#F8BD38" fill-opacity="1.000000" fill-rule="nonzero"/>
</svg>
