<svg width="42.000000" height="42.000000" viewBox="0 0 42 42" fill="none" xmlns="http://www.w3.org/2000/svg" xmlns:xlink="http://www.w3.org/1999/xlink">
	<desc>
			Created with Pixso.
	</desc>
	<defs>
		<clipPath id="clip1_92">
			<rect id="pen-tool" rx="-0.500000" width="41.000000" height="41.000000" transform="translate(0.500000 0.500000)" fill="white" fill-opacity="0"/>
		</clipPath>
	</defs>
	<rect id="pen-tool" rx="-0.500000" width="41.000000" height="41.000000" transform="translate(0.500000 0.500000)" fill="#FFFFFF" fill-opacity="0"/>
	<g clip-path="url(#clip1_92)">
		<path id="Vector" d="M33.25 21L38.5 26.25L26.25 38.5L21 33.25L33.25 21Z" stroke="#FFFFFF" stroke-opacity="1.000000" stroke-width="3.000000" stroke-linejoin="round"/>
		<path id="Vector" d="M28.87 9.62L3.5 3.5L9.62 28.87L22.75 31.5L31.5 22.75L28.87 9.62Z" stroke="#FFFFFF" stroke-opacity="1.000000" stroke-width="3.000000" stroke-linejoin="round"/>
		<path id="Vector" d="M3.5 3.5L16.77 16.77" stroke="#FFFFFF" stroke-opacity="1.000000" stroke-width="3.000000" stroke-linejoin="round" stroke-linecap="round"/>
		<path id="Vector" d="M19.25 22.75C17.31 22.75 15.75 21.18 15.75 19.25C15.75 17.31 17.31 15.75 19.25 15.75C21.18 15.75 22.75 17.31 22.75 19.25C22.75 21.18 21.18 22.75 19.25 22.75Z" stroke="#FFFFFF" stroke-opacity="1.000000" stroke-width="3.000000" stroke-linejoin="round"/>
	</g>
</svg>
